<?xml version="1.0" encoding="utf-8"?>
<!-- Generator: Adobe Illustrator 19.2.0, SVG Export Plug-In . SVG Version: 6.00 Build 0)  -->
<svg version="1.1" id="Layer_1" xmlns="http://www.w3.org/2000/svg" xmlns:xlink="http://www.w3.org/1999/xlink" x="0px" y="0px"
	 viewBox="0 0 355.4 135" style="enable-background:new 0 0 355.4 135;" xml:space="preserve">
<style type="text/css">
	.st0{fill:#FFCC3B;}
	.st1{fill:#FFE372;}
	.st2{fill:#FFFF99;}
	.st3{fill:#FF9999;}
	.st4{fill:#FBB03B;}
	.st5{fill:#666666;}
</style>
<g>
	<rect x="84.2" y="66" class="st0" width="206" height="69"/>
	<rect x="84.2" class="st1" width="206" height="66"/>
	<g>
		<path class="st2" d="M101.4,86.9c1,0,1.8,0.2,2.5,0.5c0.5,0.2,1.2,0.7,1.8,1.3c0.5,0.6,0.9,1.3,1.2,2c0.3,0.8,0.4,1.6,0.4,2.5
			c0,1.1-0.2,1.8-0.5,2.6c-0.4,1-0.8,1.6-1.3,2.1c-0.5,0.5-1.2,1.1-2,1.4c-0.8,0.3-1.7,0.5-3.2,0.5c-0.7,0-0.8,0-1.2,0
			c-0.5,0-0.4-0.1-0.7-0.1h-0.1V98l2.8,0.1c0.6,0,1.2-0.1,1.8-0.4c0.4-0.2,0.8-0.4,1.4-1c0.3-0.4,0.7-0.8,0.9-1.6
			c0.2-0.5,0.3-1.2,0.3-1.9c0-1.4-0.4-2.6-1.2-3.4c-0.7-0.7-1.8-1.2-3.2-1.2h-4v19.1h-1.8V88.6h-0.6c-0.4,0-0.8,0.2-1,0.4
			c-0.3,0.3-0.5,0.6-0.5,1.1h-1.7c0-0.5,0.1-0.9,0.2-1.2c0.2-0.4,0.3-0.7,0.7-1c0.3-0.3,0.5-0.5,1-0.7c0.3-0.1,0.7-0.2,1.2-0.2
			H101.4z"/>
		<path class="st2" d="M115.1,88.6v7.2h8.1v1.7h-8.1v8.4h11.7v1.7h-13.6v-19h-0.4c-0.4,0-0.8,0.2-1,0.4c-0.2,0.2-0.4,0.7-0.4,1.1
			h-1.7c0-0.5,0.1-0.9,0.2-1.2c0.2-0.4,0.3-0.7,0.7-1c0.3-0.3,0.5-0.5,1-0.7c0.3-0.1,0.7-0.2,1.2-0.2h14v1.7H115.1z"/>
		<path class="st2" d="M148,103l0.3,0.7V86.9h1.8v20.7h-0.5l-14.3-17.1l-0.3-0.6V105c0,0.4-0.1,0.7-0.2,1.1
			c-0.2,0.3-0.4,0.6-0.6,0.8c-0.3,0.2-0.6,0.4-0.9,0.6c-0.3,0.2-0.7,0.2-1.1,0.2c-0.8,0-1.4-0.3-1.9-0.8c-0.5-0.5-0.8-1.2-0.8-1.9
			h1.7c0,0.3,0.1,0.5,0.3,0.7c0.2,0.2,0.5,0.3,0.7,0.3c0.3,0,0.5-0.1,0.7-0.3c0.2-0.2,0.3-0.4,0.3-0.7V86.9h1.2l3.4,3.8L148,103z"/>
		<path class="st2" d="M172.9,103.9c-1.3,1.9-2.1,2.4-3.6,3.2c-1.4,0.8-3.1,1.2-4.9,1.2c-1.6,0-3-0.3-4.2-0.8
			c-1.2-0.5-2.4-1.4-3.4-2.4c-1-1-1.8-2.3-2.2-3.4c-0.5-1.2-0.8-2.7-0.8-4.2c0-1.5,0.3-3,0.8-4.4c0.5-1.3,1.3-2.5,2.3-3.6
			c1-1.1,2.2-1.9,3.5-2.5c1.3-0.6,2.6-0.9,4.1-0.9c0.8,0,1.7,0.1,2.5,0.3c0.6,0.2,1.6,0.5,2.2,0.9c0.7,0.4,1.4,1,1.6,1.4
			c0.3,0.4,0.6,1.1,0.6,2c0,0.7-0.2,1.4-0.8,2c-0.5,0.5-1.1,0.8-1.9,0.8c-0.6,0-1.2-0.2-1.7-0.6l1-1.3c0.2,0.1,0.4,0.2,0.6,0.2
			c0.2,0,0.5-0.1,0.7-0.3c0.2-0.3,0.3-0.6,0.3-0.8c0-0.5-0.2-1-0.5-1.3c-0.2-0.2-0.7-0.6-1.3-0.9c-0.5-0.2-1.1-0.4-1.7-0.5
			c-0.6-0.1-1.1-0.2-1.8-0.2c-1.3,0-2.4,0.3-3.5,0.8c-1.3,0.6-2.2,1.3-2.9,2.1c-0.9,1-1.5,1.9-2,3c-0.5,1.3-0.7,2.5-0.7,3.7
			c0,1.4,0.3,2.7,0.7,3.6c0.4,1.1,1.1,2,1.9,2.9c0.7,0.7,1.6,1.5,2.8,2c1,0.4,2,0.7,3.5,0.7c1.6,0,3.1-0.4,4.2-1
			c1.1-0.6,2.2-1.6,3-2.7L172.9,103.9z"/>
		<path class="st2" d="M176.6,107.6V86.9h1.8v20.7H176.6z"/>
		<path class="st2" d="M194.6,105.9v1.7h-11.8V86.9h1.8v19H194.6z"/>
		<path class="st2" d="M219.2,105.2c-0.8,0.8-1.7,1.5-2.8,2c-1.1,0.5-2.3,0.7-3.8,0.7c-0.8,0-1.6-0.1-2.3-0.4
			c-0.7-0.2-1.4-0.6-1.9-1.1c-0.5-0.5-1-1-1.3-1.7c-0.3-0.6-0.5-1.4-0.5-2.2c0-0.5,0.1-1.1,0.2-1.6c0.2-0.5,0.4-1.1,0.6-1.6
			c0.3-0.5,0.6-1,1-1.4c0.4-0.4,0.9-0.8,1.5-1c-0.5-0.5-0.8-1.1-1.1-1.7c-0.3-0.6-0.4-1.3-0.4-2.2c0-0.6,0.1-1.2,0.3-1.8
			c0.2-0.6,0.5-1.1,1-1.5c0.4-0.4,1-0.8,1.7-1c0.7-0.2,1.5-0.4,2.4-0.4c0.3,0,0.6,0.1,1,0.2c0.4,0.1,0.8,0.3,1.2,0.5
			c0.4,0.2,0.7,0.5,1.1,0.8c0.3,0.3,0.6,0.7,0.7,1.2l-1.2,1c-0.4-0.8-0.9-1.4-1.4-1.6c-0.6-0.2-1.1-0.3-1.6-0.3
			c-1.2,0-2,0.3-2.4,0.8c-0.5,0.5-0.7,1.3-0.7,2.2c0,0.6,0.1,1.1,0.4,1.5c0.2,0.5,0.5,0.9,0.9,1.4c0.4,0.5,0.8,0.9,1.3,1.3
			c0.5,0.4,0.9,0.8,1.3,1.2l4.6,4.3c0.4-0.7,0.7-1.5,0.9-2.3c0.2-0.8,0.3-1.6,0.3-2.5v-1.2h1.6v1.3c0,1.1-0.1,2.1-0.4,3.1
			c-0.3,1-0.7,1.9-1.2,2.8l2.8,2.6l-1.1,1.2L219.2,105.2z M211.3,98.1c-1,0.5-1.7,1.1-2.1,1.9c-0.5,0.8-0.7,1.6-0.7,2.5
			c0,0.6,0.1,1.2,0.3,1.6c0.2,0.5,0.5,0.9,0.9,1.2c0.4,0.3,0.8,0.6,1.3,0.8c0.5,0.2,1,0.3,1.6,0.3c1.2,0,2.2-0.2,3.1-0.6
			c0.9-0.4,1.6-0.9,2.3-1.6l-4.5-4.2L211.3,98.1z"/>
		<path class="st2" d="M253.9,103.9c-1.3,1.9-2.1,2.4-3.6,3.2c-1.4,0.8-3.1,1.2-4.9,1.2c-1.6,0-3-0.3-4.2-0.8
			c-1.2-0.5-2.4-1.4-3.4-2.4c-1-1-1.8-2.3-2.2-3.4c-0.5-1.2-0.8-2.7-0.8-4.2c0-1.5,0.3-3,0.8-4.4c0.5-1.3,1.3-2.5,2.3-3.6
			c1-1.1,2.2-1.9,3.5-2.5c1.3-0.6,2.6-0.9,4.1-0.9c0.8,0,1.7,0.1,2.5,0.3c0.6,0.2,1.6,0.5,2.2,0.9c0.7,0.4,1.4,1,1.6,1.4
			c0.3,0.4,0.6,1.1,0.6,2c0,0.7-0.2,1.4-0.8,2c-0.5,0.5-1.1,0.8-1.9,0.8c-0.6,0-1.2-0.2-1.7-0.6l1-1.3c0.2,0.1,0.4,0.2,0.6,0.2
			c0.2,0,0.5-0.1,0.7-0.3c0.2-0.3,0.3-0.6,0.3-0.8c0-0.5-0.2-1-0.5-1.3c-0.2-0.2-0.7-0.6-1.3-0.9c-0.5-0.2-1.1-0.4-1.7-0.5
			c-0.6-0.1-1.1-0.2-1.8-0.2c-1.3,0-2.4,0.3-3.5,0.8c-1.3,0.6-2.2,1.3-2.9,2.1c-0.9,1-1.5,1.9-2,3c-0.5,1.3-0.7,2.5-0.7,3.7
			c0,1.4,0.3,2.7,0.7,3.6c0.4,1.1,1.1,2,1.9,2.9c0.7,0.7,1.6,1.5,2.8,2c1,0.4,2,0.7,3.5,0.7c1.6,0,3.1-0.4,4.2-1
			c1.1-0.6,2.2-1.6,3-2.7L253.9,103.9z"/>
		<path class="st2" d="M257.2,97c0-1.3,0.2-2.7,0.8-4c0.5-1.2,1.2-2.5,2.2-3.4c0.9-0.9,2.1-1.8,3.4-2.5c1.2-0.5,2.6-0.9,4.3-0.9
			c1.6,0,3,0.3,4.2,0.9c1.3,0.6,2.4,1.4,3.4,2.4c0.8,0.9,1.7,2,2.2,3.4c0.6,1.4,0.8,2.8,0.8,4.2v0.6c0,1.5-0.2,2.8-0.7,4
			c-0.5,1.2-1.3,2.5-2.2,3.5c-0.9,1-2,1.8-3.3,2.4c-1.3,0.6-2.8,0.9-4.3,0.9c-1.5,0-2.9-0.3-4.1-0.8c-1.2-0.5-2.3-1.3-3.4-2.4
			c-0.8-0.8-1.7-2-2.3-3.4c-0.6-1.4-0.8-2.8-0.8-4.2V97z M276.7,97c0-1.8-0.2-2.4-0.7-3.5c-0.5-1.1-1.1-2-1.9-2.9
			c-0.8-0.8-1.9-1.6-2.8-2c-1-0.5-2.2-0.7-3.5-0.7c-1.3,0-2.4,0.3-3.4,0.7c-1,0.5-2,1.1-2.8,2c-0.8,0.9-1.5,1.9-1.9,2.9
			c-0.5,1.1-0.7,2.3-0.7,3.5v0.6c0,1.3,0.2,2.5,0.7,3.5c0.5,1.2,1.2,2.2,1.9,2.9c0.8,0.8,1.8,1.5,2.8,2c1.1,0.5,2.2,0.7,3.4,0.7
			c1.3,0,2.5-0.3,3.5-0.7c0.9-0.4,2-1.1,2.8-2c0.9-0.9,1.5-1.8,1.9-2.9c0.5-1.1,0.7-2.3,0.7-3.5V97z"/>
	</g>
	<path class="st3" d="M10.7,133.8h40.6c5.9,0,10.7-4.8,10.7-10.7V10.7C61.9,4.8,57.1,0,51.3,0H10.7C4.8,0,0,4.8,0,10.7v112.4
		C0,129,4.8,133.8,10.7,133.8z"/>
	<polygon class="st4" points="344.2,55.5 344.2,77.9 290.2,133.2 290.2,0.2 	"/>
	<polygon class="st4" points="289.5,67.3 290.2,0.2 290.2,133.2 289.4,133.8 	"/>
	<rect x="46.8" class="st5" width="37.8" height="133.8"/>
	<polygon class="st4" points="355.4,66.7 344.2,77.9 344.2,55.5 	"/>
	<polygon class="st5" points="355.4,66.7 344.2,77.9 344.2,55.5 	"/>
</g>
</svg>
